# xmcd
#
# Track frame offsets:
#	150
#	735
#	11904
#	22949
#	34146
#	45698
#	60184
#	71255
#	85042
#	100273
#	111634
#	125491
#	136443
#
# Disc length: 1985 seconds
#
# Revision: 1
# Processed by: cddbd v1.5.2PL0 Copyright (c) Steve Scherf et al.
# Submitted via: audiograbber 1.83.01
#
DISCID=a407bf0d
DTITLE=Bill Parker - Texas Tales vol 1
DYEAR=2010
DGENRE=Country
TTITLE0=Gripweed Union Introduction
TTITLE1=Down In Egypt Land
TTITLE2=That Dres Suits You Fine
TTITLE3=I Thought I Heard You Call My Name
TTITLE4=Anothe Drink
TTITLE5=When You Coming Home, Red Ryder
TTITLE6=Bonafide
TTITLE7=Lewisville, Texas 1983
TTITLE8=I May Not Be An Angel
TTITLE9=Living Small Loving Large
TTITLE10=Nothing But Fine
TTITLE11=Kitchen Light
TTITLE12=Funky In The Bunkhouse
EXTD=
EXTT0=
EXTT1=
EXTT2=
EXTT3=
EXTT4=
EXTT5=
EXTT6=
EXTT7=
EXTT8=
EXTT9=
EXTT10=
EXTT11=
EXTT12=
PLAYORDER=
